<svg width="24" height="24" viewBox="0 0 24 24" fill="none" xmlns="http://www.w3.org/2000/svg">
<path fill-rule="evenodd" clip-rule="evenodd" d="M12 24C14.3734 24 16.6935 23.2962 18.6668 21.9776C20.6402 20.6591 22.1783 18.7849 23.0866 16.5922C23.9948 14.3995 24.2324 11.9867 23.7694 9.65892C23.3064 7.33115 22.1635 5.19295 20.4853 3.51472C18.8071 1.83649 16.6689 0.693605 14.3411 0.230582C12.0133 -0.232441 9.60051 0.00519943 7.4078 0.913451C5.21509 1.8217 3.34094 3.35977 2.02236 5.33316C0.703788 7.30655 0 9.62663 0 12C0.000132598 15.1826 1.26446 18.2347 3.51487 20.4851C5.76527 22.7355 8.81744 23.9999 12 24ZM11 6.00001C11 5.73479 11.1054 5.48043 11.2929 5.2929C11.4804 5.10536 11.7348 5.00001 12 5.00001C12.2652 5.00001 12.5196 5.10536 12.7071 5.2929C12.8946 5.48043 13 5.73479 13 6.00001V13C13 13.2652 12.8946 13.5196 12.7071 13.7071C12.5196 13.8946 12.2652 14 12 14C11.7348 14 11.4804 13.8946 11.2929 13.7071C11.1054 13.5196 11 13.2652 11 13V6.00001ZM12 16C12.2967 16 12.5867 16.088 12.8334 16.2528C13.08 16.4176 13.2723 16.6519 13.3858 16.926C13.4994 17.2001 13.5291 17.5017 13.4712 17.7926C13.4133 18.0836 13.2704 18.3509 13.0607 18.5607C12.8509 18.7704 12.5836 18.9133 12.2926 18.9712C12.0017 19.0291 11.7001 18.9994 11.426 18.8858C11.1519 18.7723 10.9176 18.58 10.7528 18.3334C10.588 18.0867 10.5 17.7967 10.5 17.5C10.5 17.1022 10.658 16.7207 10.9393 16.4393C11.2206 16.158 11.6022 16 12 16Z" fill="#DF1995"/>
</svg>
