<svg width="16" height="16" viewBox="0 0 16 16" fill="none" xmlns="http://www.w3.org/2000/svg">
<path fill-rule="evenodd" clip-rule="evenodd" d="M8 0C6.41775 0 4.87103 0.469192 3.55544 1.34824C2.23985 2.22729 1.21447 3.47672 0.608967 4.93853C0.00346629 6.40034 -0.15496 8.00887 0.153721 9.56072C0.462403 11.1126 1.22433 12.538 2.34315 13.6569C3.46197 14.7757 4.88743 15.5376 6.43928 15.8463C7.99113 16.155 9.59966 15.9965 11.0615 15.391C12.5233 14.7855 13.7727 13.7602 14.6518 12.4446C15.5308 11.129 16 9.58225 16 8C15.9999 5.87829 15.157 3.84352 13.6568 2.34324C12.1565 0.842972 10.1217 8.83988e-05 8 0ZM11.8047 6.138L7.138 10.8047C7.07612 10.8666 7.00265 10.9157 6.92177 10.9492C6.8409 10.9827 6.75421 11 6.66667 11C6.57913 11 6.49244 10.9827 6.41157 10.9492C6.33069 10.9157 6.25722 10.8666 6.19534 10.8047L4.19534 8.80467C4.0739 8.67893 4.0067 8.51053 4.00822 8.33573C4.00974 8.16093 4.07985 7.99373 4.20346 7.87012C4.32706 7.74652 4.49427 7.6764 4.66907 7.67488C4.84387 7.67336 5.01227 7.74056 5.138 7.862L6.66667 9.3906L10.862 5.19533C10.9235 5.13166 10.9971 5.08087 11.0784 5.04593C11.1597 5.01099 11.2472 4.9926 11.3357 4.99183C11.4243 4.99106 11.512 5.00793 11.594 5.04145C11.6759 5.07497 11.7503 5.12447 11.8129 5.18707C11.8755 5.24966 11.925 5.3241 11.9586 5.40603C11.9921 5.48796 12.0089 5.57575 12.0082 5.66427C12.0074 5.75279 11.989 5.84027 11.9541 5.9216C11.9191 6.00294 11.8683 6.0765 11.8047 6.138Z" fill="#C0C6CB"/>
</svg>
