<svg width="16" height="16" viewBox="0 0 16 16" fill="none" xmlns="http://www.w3.org/2000/svg">
<path d="M3.97173 15.4357H0.563277V5.36532H3.97173V15.4357ZM2.11257 3.97095C1.02807 3.97095 0.253418 3.1963 0.253418 2.26673C0.253418 1.33715 1.02807 0.5625 2.11257 0.5625C3.19708 0.5625 3.97173 1.33715 3.97173 2.26673C3.97173 3.1963 3.35201 3.97095 2.11257 3.97095ZM15.5914 15.4357H12.183V9.85827C12.183 8.46391 11.8731 7.68926 10.6337 7.68926C9.70412 7.68926 9.23933 8.30898 8.92947 8.9287C8.92947 9.08363 8.92947 9.39349 8.92947 9.70334V15.4357H5.52102V5.36532H8.92947V6.75968C9.39426 5.98504 10.1689 5.05546 11.8731 5.05546C14.0422 5.05546 15.5914 6.44982 15.5914 9.54842V15.4357Z" fill="#73C054"/>
</svg>
