<svg width="24" height="24" viewBox="0 0 24 24" fill="none" xmlns="http://www.w3.org/2000/svg">
<path fill-rule="evenodd" clip-rule="evenodd" d="M12 0.000979519C9.62664 0.000979726 7.30657 0.704769 5.33318 2.02334C3.3598 3.34192 1.82173 5.21606 0.913479 7.40878C0.00522869 9.60149 -0.23241 12.0143 0.230613 14.3421C0.693633 16.6698 1.83652 18.808 3.51475 20.4863C5.19298 22.1645 7.33117 23.3074 9.65894 23.7704C11.9867 24.2334 14.3995 23.9958 16.5922 23.0875C18.7849 22.1793 20.6591 20.6412 21.9776 18.6678C23.2962 16.6944 24 14.3743 24 12.001C23.9999 8.81842 22.7355 5.76625 20.4851 3.51584C18.2347 1.26544 15.1826 0.00111085 12 0.000979519ZM13 18.001C13 18.2662 12.8947 18.5205 12.7071 18.7081C12.5196 18.8956 12.2652 19.001 12 19.001C11.7348 19.001 11.4804 18.8956 11.2929 18.7081C11.1054 18.5205 11 18.2662 11 18.001L11 11.001C11 10.7358 11.1054 10.4814 11.2929 10.2939C11.4804 10.1063 11.7348 10.001 12 10.001C12.2652 10.001 12.5196 10.1063 12.7071 10.2939C12.8947 10.4814 13 10.7358 13 11.001L13 18.001ZM12 8.00098C11.7033 8.00098 11.4133 7.913 11.1667 7.74818C10.92 7.58336 10.7277 7.34909 10.6142 7.075C10.5007 6.80091 10.471 6.49931 10.5288 6.20834C10.5867 5.91737 10.7296 5.6501 10.9394 5.44032C11.1491 5.23054 11.4164 5.08768 11.7074 5.0298C11.9984 4.97192 12.3 5.00163 12.574 5.11516C12.8481 5.22869 13.0824 5.42095 13.2472 5.66762C13.412 5.9143 13.5 6.2043 13.5 6.50098C13.5 6.8988 13.342 7.28033 13.0607 7.56164C12.7794 7.84294 12.3978 8.00098 12 8.00098Z" fill="#FF8F1C"/>
</svg>
