<svg width="15" height="15" viewBox="0 0 15 15" fill="none" xmlns="http://www.w3.org/2000/svg">
<path d="M8.25519 7.9996L13.2551 8.00031C13.3879 8.00262 13.5198 7.97846 13.6431 7.92925C13.7665 7.88004 13.8788 7.80676 13.9735 7.71368C14.0682 7.62061 14.1434 7.50961 14.1947 7.38715C14.2461 7.2647 14.2725 7.13324 14.2725 7.00046C14.2725 6.86767 14.2461 6.73622 14.1947 6.61376C14.1434 6.49131 14.0682 6.38031 13.9735 6.28723C13.8788 6.19416 13.7665 6.12088 13.6431 6.07167C13.5198 6.02246 13.3879 5.9983 13.2551 6.00061L8.25519 5.9999L8.25449 0.999951C8.24993 0.737784 8.14259 0.487895 7.95557 0.304105C7.76856 0.120315 7.51685 0.0173293 7.25464 0.0173293C6.99243 0.0173293 6.74072 0.120315 6.5537 0.304105C6.36669 0.487895 6.25935 0.737784 6.25479 0.999951L6.2555 5.9999L1.25554 5.9992C1.12278 5.99689 0.990886 6.02105 0.867557 6.07026C0.744229 6.11947 0.631935 6.19275 0.53723 6.28582C0.442525 6.37889 0.367305 6.4899 0.315958 6.61235C0.264611 6.73481 0.238166 6.86626 0.238166 6.99905C0.238166 7.13183 0.264612 7.26328 0.315959 7.38574C0.367306 7.50819 0.442526 7.6192 0.537231 7.71227C0.631936 7.80534 0.744228 7.87862 0.867557 7.92783C0.990886 7.97705 1.12278 8.0012 1.25554 7.99889L6.2555 7.9996L6.2562 12.9996C6.2539 13.1323 6.27805 13.2642 6.32726 13.3875C6.37647 13.5109 6.44976 13.6232 6.54283 13.7179C6.6359 13.8126 6.7469 13.8878 6.86936 13.9391C6.99181 13.9905 7.12327 14.0169 7.25605 14.0169C7.38884 14.0169 7.52029 13.9905 7.64275 13.9391C7.7652 13.8878 7.8762 13.8126 7.96928 13.7179C8.06235 13.6232 8.13563 13.5109 8.18484 13.3875C8.23405 13.2642 8.25821 13.1323 8.2559 12.9996L8.25519 7.9996Z" fill="white"/>
</svg>
