<svg width="24" height="24" viewBox="0 0 24 24" fill="none" xmlns="http://www.w3.org/2000/svg">
<path d="M17.207 9.54301C17.0195 9.35553 16.7652 9.25022 16.5 9.25022C16.2349 9.25022 15.9805 9.35553 15.793 9.54301L12 13.336L8.20702 9.54301C8.11477 9.4475 8.00443 9.37131 7.88242 9.3189C7.76042 9.26649 7.6292 9.23891 7.49642 9.23775C7.36364 9.2366 7.23196 9.2619 7.10907 9.31218C6.98617 9.36246 6.87452 9.43672 6.78062 9.53061C6.68673 9.6245 6.61248 9.73615 6.5622 9.85905C6.51192 9.98195 6.48662 10.1136 6.48777 10.2464C6.48892 10.3792 6.51651 10.5104 6.56892 10.6324C6.62133 10.7544 6.69751 10.8648 6.79302 10.957L11.293 15.457C11.4805 15.6445 11.7349 15.7498 12 15.7498C12.2652 15.7498 12.5195 15.6445 12.707 15.457L17.207 10.957C17.3945 10.7695 17.4998 10.5152 17.4998 10.25C17.4998 9.98484 17.3945 9.73053 17.207 9.54301Z" />
</svg>
