<svg width="12" height="10" viewBox="0 0 12 10" fill="none" xmlns="http://www.w3.org/2000/svg">
<path fill-rule="evenodd" clip-rule="evenodd" d="M11.6947 1.7193L4.69471 8.71933C4.60189 8.81222 4.49167 8.88591 4.37036 8.93618C4.24905 8.98645 4.11903 9.01233 3.98771 9.01233C3.8564 9.01233 3.72637 8.98645 3.60506 8.93618C3.48375 8.88591 3.37353 8.81222 3.28071 8.71933L0.280712 5.71932C0.0985542 5.53071 -0.00224062 5.27811 3.78025e-05 5.01591C0.00231622 4.75371 0.107485 4.5029 0.292893 4.31749C0.478302 4.13208 0.729114 4.02691 0.99131 4.02463C1.25351 4.02236 1.50611 4.12315 1.69471 4.30531L3.98771 6.59822L10.2807 0.30529C10.373 0.209779 10.4833 0.133597 10.6053 0.0811873C10.7273 0.028778 10.8585 0.00119158 10.9913 3.77572e-05C11.1241 -0.00111607 11.2558 0.0241856 11.3787 0.0744667C11.5016 0.124748 11.6132 0.199001 11.7071 0.292895C11.801 0.386788 11.8753 0.49844 11.9255 0.621337C11.9758 0.744234 12.0011 0.875914 12 1.00869C11.9988 1.14147 11.9712 1.2727 11.9188 1.3947C11.8664 1.5167 11.7902 1.62705 11.6947 1.7193Z" fill="white"/>
</svg>
