<svg width="16" height="16" viewBox="0 0 16 16" fill="none" xmlns="http://www.w3.org/2000/svg">
<path d="M14.9558 1.29425C17.1129 3.45135 15.8187 8.34075 12.0797 12.0797C8.34075 15.8187 3.45135 17.1129 1.29425 14.9558L0.431418 14.093C-0.143806 13.5178 -0.143806 12.3673 0.431418 11.7921L2.01328 10.0664C2.58851 9.4912 3.73896 9.4912 4.31418 10.0664L6.03985 11.7921C7.0465 11.2169 8.19695 10.354 9.20359 9.34739C10.2102 8.34075 11.0731 7.1903 11.6483 6.18366L9.92262 4.45799C9.34739 3.73896 9.34739 2.73232 9.92262 2.15709L11.6483 0.431418C12.2235 -0.143806 13.374 -0.143806 13.9492 0.431418L14.9558 1.29425Z" fill="#73C054"/>
</svg>
