<svg width="24" height="24" viewBox="0 0 24 24" fill="none" xmlns="http://www.w3.org/2000/svg">
<path d="M15.4571 11.2936L10.9571 6.79357C10.8648 6.69806 10.7545 6.62188 10.6325 6.56947C10.5105 6.51706 10.3793 6.48947 10.2465 6.48832C10.1137 6.48717 9.98202 6.51247 9.85913 6.56275C9.73623 6.61303 9.62458 6.68728 9.53069 6.78117C9.43679 6.87507 9.36254 6.98672 9.31226 7.10962C9.26198 7.23251 9.23668 7.36419 9.23783 7.49697C9.23898 7.62975 9.26657 7.76097 9.31898 7.88297C9.37139 8.00498 9.44757 8.11532 9.54308 8.20757L13.3361 12.0006L9.54308 15.7936C9.44757 15.8858 9.37139 15.9962 9.31898 16.1182C9.26657 16.2402 9.23898 16.3714 9.23783 16.5042C9.23668 16.6369 9.26198 16.7686 9.31226 16.8915C9.36254 17.0144 9.43679 17.1261 9.53069 17.22C9.62458 17.3139 9.73623 17.3881 9.85913 17.4384C9.98202 17.4887 10.1137 17.514 10.2465 17.5128C10.3793 17.5117 10.5105 17.4841 10.6325 17.4317C10.7545 17.3793 10.8648 17.3031 10.9571 17.2076L15.4571 12.7076C15.6446 12.52 15.7499 12.2657 15.7499 12.0006C15.7499 11.7354 15.6446 11.4811 15.4571 11.2936Z" fill="#5C068C"/>
</svg>
